<?xml version="1.0" standalone="no"?><!DOCTYPE svg PUBLIC "-//W3C//DTD SVG 1.1//EN" "http://www.w3.org/Graphics/SVG/1.1/DTD/svg11.dtd"><svg t="1606732821863" class="icon" viewBox="0 0 1024 1024" version="1.1" xmlns="http://www.w3.org/2000/svg" p-id="7664" xmlns:xlink="http://www.w3.org/1999/xlink" width="200" height="200"><defs><style type="text/css"></style></defs><path d="M449.616384 0m68.266667 0l0.529066 0q68.266667 0 68.266667 68.266667l0 887.466666q0 68.266667-68.266667 68.266667l-0.529066 0q-68.266667 0-68.266667-68.266667l0-887.466666q0-68.266667 68.266667-68.266667Z" fill="#ffffff" p-id="7665"></path><path d="M547.852117 26.026667a59.5456 59.5456 0 0 1 0 84.48L196.278784 460.475733a60.194133 60.194133 0 0 1-84.855467 0 59.5456 59.5456 0 0 1 0-84.48l351.573334-349.969066a60.194133 60.194133 0 0 1 84.855466 0z" fill="#ffffff" p-id="7666"></path><path d="M483.954517 17.8176a62.225067 62.225067 0 0 0 0 86.016l345.1392 356.334933a57.6 57.6 0 0 0 83.319467 0 62.225067 62.225067 0 0 0 0-86.016L567.256917 17.8176a57.617067 57.617067 0 0 0-83.3024 0z" fill="#ffffff" p-id="7667"></path></svg>